<?xml version="1.0" encoding="UTF-8" standalone="no"?>
<!-- Created with Inkscape (http://www.inkscape.org/) -->

<svg
   version="1.1"
   id="svg1"
   width="1248.3259"
   height="199.32666"
   viewBox="0 0 1248.3259 199.32666"
   xmlns="http://www.w3.org/2000/svg"
   xmlns:svg="http://www.w3.org/2000/svg">
  <defs
     id="defs1" />
  <g
     id="g1"
     transform="translate(-29.183109,318.27066)"
     style="stroke:none">
    <path
       style="fill:#ffffff;stroke:none"
       d="m 820.18053,-119.37677 -43.5,-0.5491 -8.80747,-2.71317 c -34.27515,-10.5586 -56.95802,-37.05621 -61.6439,-72.011 -1.31666,-9.82174 -1.32267,-29.97614 -0.0117,-39.17764 4.26778,-29.95465 25.36949,-57.00254 52.96306,-67.88736 16.74279,-6.60452 -0.31177,-6.058 199.5,-6.39306 125.79638,-0.21095 183.52438,0.0267 189.27678,0.77926 29.9692,3.92059 54.3269,21.11034 67.3086,47.50116 7.7517,15.75856 8.4146,19.34285 8.4146,45.5 0,20.35079 -0.219,23.30113 -2.2924,30.88697 -4.4528,16.29145 -12.4545,29.44357 -25.2661,41.52937 -13.1315,12.38764 -28.7044,19.44581 -47.4876,21.52302 -11.0172,1.21839 -253.02392,1.9637 -328.45388,1.01155 z m 332.61817,-19.06448 c 12.5068,-3.86683 22.5695,-10.06499 32.3818,-19.9457 11.5682,-11.64888 18.5285,-23.90844 21.0136,-37.01251 1.5975,-8.42369 1.242,-39.50433 -0.5315,-46.46812 -2.5751,-10.111 -7.3281,-18.24622 -15.4821,-26.49864 -12.9629,-13.11945 -28.2629,-20.45376 -45.9731,-22.03793 -5.2398,-0.4687 -43.8394,-0.86823 -85.7769,-0.88786 l -76.24995,-0.0357 v 78.07247 78.07249 l 81.24995,-0.37427 81.25,-0.37427 z m -400.61817,-37.8612 2.5,-0.0224 -0.32205,-15.0014 -0.32204,-15.0014 h 16.546 16.546 l 0.27604,15.20985 0.27605,15.20985 8.5,0.23344 c 13.47372,0.37003 12.06287,5.16509 11.76154,-39.97419 l -0.26154,-39.17895 -10.25,-0.28498 -10.25,-0.28499 v 16.55976 16.55975 l -16.25,-0.27477 -16.25,-0.27477 -0.1915,-15 c -0.10533,-8.25 -0.21783,-15.5625 -0.25,-16.25 -0.0427,-0.91277 -2.75636,-1.25 -10.0585,-1.25 h -10 v 39.33333 c 0,21.63334 0.286,39.61935 0.63557,39.96891 0.34956,0.34956 3.83706,0.43529 7.75,0.1905 3.91293,-0.24479 8.23943,-0.45517 9.61443,-0.46751 z m 95.47749,-0.58156 c 1.80386,-0.85599 4.3128,-2.65599 5.57544,-4 3.26699,-3.47756 5.04905,-3.20357 4.27683,0.65756 -0.3621,1.81047 -0.17123,3.37872 0.45859,3.76797 0.59336,0.36672 5.04622,0.65867 9.89524,0.64878 l 8.81641,-0.018 0.5,-23.80523 c 0.275,-13.09288 0.275,-26.80184 0,-30.46436 l -0.5,-6.65913 -9.5,-0.0356 -9.5,-0.0357 -0.55419,18.5 c -0.3048,10.175 -0.91195,19.27839 -1.34922,20.22976 -1.06469,2.31646 -6.78895,5.77025 -9.56349,5.77025 -3.09528,0 -8.71993,-2.81256 -9.65368,-4.82724 -0.4264,-0.92002 -1.02371,-10.22276 -1.32735,-20.67276 l -0.55207,-19 h -9.5 -9.5 l 0.0125,23 c 0.0117,21.59912 0.14316,23.24363 2.15842,27.00001 2.5047,4.66869 6.7857,8.97047 10.32912,10.37927 3.98899,1.58595 15.77273,1.32241 19.47749,-0.43561 z m 59.33587,-2.19366 c 0.17235,-1.7875 0.60092,-3.25 0.95239,-3.25 0.35147,0 2.1486,1.4625 3.99362,3.25 3.34364,3.2394 3.38782,3.24991 13.54761,3.2233 7.47957,-0.0196 10.99164,-0.45997 13.19302,-1.65426 4.49257,-2.43731 9.82194,-8.18486 12.56218,-13.5479 2.10316,-4.11618 2.43782,-6.14393 2.43782,-14.77115 0,-11.24974 -1.60427,-16.13236 -7.51098,-22.85972 -4.86674,-5.54291 -10.18435,-7.89638 -18.98902,-8.40416 -6.89198,-0.39747 -7.97438,-0.18136 -13.35155,2.66567 -3.21835,1.70402 -6.01849,3.09821 -6.22254,3.09821 -0.20405,0 -0.49585,-6.4125 -0.64845,-14.25 l -0.27746,-14.25 -9.75,-0.28621 -9.75,-0.28621 v 41.97584 41.97586 l 3.75,0.31036 c 2.0625,0.17071 6.45,0.31037 9.75,0.31037 h 6 z m 8.18664,-13.00156 c -6.55819,-3.27619 -9.85053,-13.96968 -6.62888,-21.53057 2.45403,-5.75935 6.08706,-8.21788 12.14378,-8.21788 4.56693,0 5.80668,0.43391 8.43539,2.95237 7.67823,7.35622 5.84825,22.56816 -3.23336,26.87767 -4.44869,2.11104 -6.35685,2.09651 -10.71693,-0.0816 z m -742.30873,34.93062 c -1.58977,-0.30616 -1.69451,-3.29943 -1.4523,-41.50452 l 0.26103,-41.17455 h 9 c 8.85359,0 9.00486,0.0407 9.29904,2.5 0.62633,5.23626 0.99851,5.31895 6.32876,1.40618 6.29136,-4.61828 12.62154,-5.49309 21.36203,-2.95216 8.12206,2.36115 15.69709,9.94128 18.06113,18.07328 2.21057,7.6041 1.62282,20.16255 -1.23896,26.4727 -6.92651,15.27279 -25.73675,20.74437 -39.28241,11.42659 l -5.02959,-3.45975 v 15.01513 15.01513 l -7.7977,-0.24403 c -4.28873,-0.13422 -8.56869,-0.39252 -9.51103,-0.574 z m 36.94171,-37.8092 c 4.70579,-2.23304 8.36702,-8.69056 8.36702,-14.75739 0,-9.02071 -4.98453,-14.69787 -13.52664,-15.40625 -5.42132,-0.44957 -5.62738,-0.36986 -9.46109,3.66021 -5.90594,6.20844 -6.73022,15.50781 -1.96745,22.1965 3.94931,5.5463 10.43031,7.22902 16.58816,4.30693 z m 33.78748,37.28347 c -0.24397,-0.63578 -0.32588,-19.38037 -0.18202,-41.65465 l 0.26156,-40.49869 7.8448,-0.29377 c 8.55957,-0.32054 10.6552,0.54803 10.6552,4.41621 0,3.05052 0.34461,3.00661 6.27606,-0.79959 13.57919,-8.71374 32.6964,-1.54858 38.59284,14.46466 2.58084,7.00889 2.81109,17.05971 0.56416,24.62596 -1.82103,6.13206 -7.82981,13.22797 -13.76572,16.25625 -8.09314,4.12881 -20.5053,3.34388 -27.13952,-1.71628 -1.76913,-1.34939 -3.49927,-2.45343 -3.84475,-2.45343 -0.34549,0 -0.75301,6.4125 -0.90561,14.25 l -0.27746,14.25 -8.81798,0.15464 c -5.87802,0.10308 -8.96587,-0.23076 -9.26156,-1.00131 z m 38.57022,-37.50868 c 6.92369,-3.71321 10.01567,-14.64508 6.25777,-22.12473 -3.94101,-7.84409 -14.08269,-10.55462 -20.20764,-5.40081 -4.38406,3.68893 -6.04081,7.44173 -6.04081,13.68334 0,6.48119 2.77836,11.31253 8.01993,13.94599 4.45824,2.23989 7.65235,2.2122 11.97075,-0.10379 z m -230.490678,15.36128 c -10.342008,-2.30123 -22.495432,-8.51689 -22.497423,-11.50594 -0.0011,-1.65122 5.629316,-14 6.383289,-14 0.258936,0 3.090544,1.56055 6.292463,3.4679 17.016804,10.13669 33.321671,9.90323 33.321671,-0.47711 0,-3.00621 -4.401437,-5.60599 -15.266173,-9.0172 -16.852072,-5.29107 -22.013496,-8.61201 -25.186099,-16.20512 -4.703268,-11.2565 1.646984,-24.00939 14.390749,-28.90022 10.33954,-3.96813 29.295392,-2.39314 41.061522,3.41168 2.61684,1.29101 4.42738,2.84779 4.32648,3.72007 -0.0954,0.825 -1.31756,4.2 -2.71583,7.5 -2.92784,6.90987 -3.12344,6.95661 -12.52408,2.99275 -8.625432,-3.63698 -21.719441,-4.71531 -23.737914,-1.95489 -2.118302,2.89695 -1.673961,7.20289 0.91858,8.90158 1.246979,0.81706 8.334479,3.55806 15.75,6.09112 14.061444,4.80325 18.374424,7.57002 21.696644,13.91838 2.05017,3.91763 2.05375,15.17732 0.006,19.09036 -1.79045,3.42149 -7.11408,8.65095 -10.67383,10.48501 -7.632213,3.93228 -20.483348,4.94323 -31.546129,2.48163 z m 60.507138,-0.0989 c -4.57331,-1.98325 -7.71011,-4.98811 -10.342,-9.90703 -2.007769,-3.75245 -2.140989,-5.42342 -2.152679,-27 l -0.0125,-23.00001 h 9.396939 9.39694 l -0.186,15 c -0.22494,18.14089 0.73019,24.1038 4.3612,27.22706 4.8238,4.14926 13.67202,2.33241 16.56841,-3.40206 1.00823,-1.99616 1.57879,-8.10612 1.94469,-20.825 l 0.51782,-18 9.19371,-0.28678 9.1937,-0.28678 0.3063,4.78678 c 0.16846,2.63273 0.17938,16.61598 0.0243,31.07388 l -0.28201,26.28711 -9.21799,-0.2871 -9.21801,-0.2871 0.33251,-4.75 c 0.18288,-2.6125 0.046,-4.75 -0.30423,-4.75 -0.35021,0 -2.07484,1.39177 -3.83251,3.09282 -6.76133,6.54353 -17.65645,8.7974 -25.68863,5.3142 z m 203.49286,0.84813 c -1.16879,-0.88262 -1.77451,-71.17485 -0.67936,-78.837 l 0.70296,-4.91817 9.24897,-0.14213 9.24897,-0.14212 -0.26077,42.14212 -0.26077,42.14214 -8.5,0.25516 c -4.675,0.14033 -8.95,-0.0847 -9.5,-0.5 z m 46,-0.19347 c -9.57072,-2.34033 -18.47554,-10.72988 -21.14859,-19.92484 -2.09618,-7.2106 -1.34205,-18.45902 1.65224,-24.64439 2.93823,-6.06958 10.5996,-12.73756 17.01629,-14.80992 2.86535,-0.9254 8.00138,-1.68255 11.41339,-1.68255 17.475,0 28.27518,9.63809 30.5667,27.27774 0.51602,3.97224 0.95211,7.55976 0.96909,7.97226 0.017,0.4125 -9.64412,0.75 -21.46912,0.75 -21.1746,0 -21.5,0.0318 -21.5,2.1 0,1.155 1.48962,3.58962 3.31028,5.41028 4.84456,4.84456 10.4237,5.45984 18.86953,2.08097 3.56241,-1.42519 6.91298,-2.59125 7.4457,-2.59125 0.53273,0 2.71968,1.79327 4.8599,3.98505 l 3.8913,3.98506 -2.43836,2.60997 c -6.27744,6.71924 -22.08878,10.25692 -33.43835,7.48162 z m 21.19855,-36.71852 c 0.80821,-2.10616 -1.42773,-6.07649 -4.85545,-8.62176 -5.55048,-4.12156 -13.12709,-2.23982 -18.16826,4.51228 -3.66442,4.90809 -2.05329,5.7663 10.82516,5.7663 9.84195,0 11.65739,-0.24658 12.19855,-1.65682 z m 23.75458,36.39529 c -0.26625,-0.69385 -0.36463,-14.53136 -0.21861,-30.75001 l 0.26548,-29.48846 7.73756,-0.29184 c 9.75248,-0.36784 11.5149,0.47216 10.96018,5.22381 -0.22911,1.96242 -0.10555,3.56803 0.27456,3.56803 0.38011,0 2.56684,-1.48738 4.8594,-3.30528 5.90148,-4.67963 8.83987,-5.69523 16.46535,-5.69098 8.06635,0.005 11.78243,1.92248 16.39008,8.4594 l 3.15126,4.47073 2.94896,-4.00996 c 9.2427,-12.56812 29.27118,-12.27257 37.20373,0.54901 l 3.00892,4.8634 0.30052,23.83184 0.30051,23.83185 h -7.96873 c -4.3828,0 -8.68053,-0.27314 -9.55051,-0.60699 -1.35776,-0.52102 -1.58179,-3.04919 -1.58179,-17.85079 0,-9.48408 -0.46284,-18.5715 -1.02854,-20.19426 -2.07287,-5.94623 -11.18538,-8.32734 -16.34292,-4.27042 -4.70252,3.69901 -5.10091,5.4276 -5.62854,24.42245 l -0.5,18.00001 h -8.99018 -8.99018 l -0.6415,-3 c -0.35283,-1.65 -0.7009,-9.97501 -0.77348,-18.50001 -0.0726,-8.525 -0.40802,-16.53052 -0.74542,-17.79005 -0.80142,-2.99177 -5.22356,-5.20995 -10.3865,-5.20995 -3.19626,0 -4.76433,0.63774 -6.95539,2.8288 -4.11494,4.11494 -5.00554,8.81002 -5.01177,26.4212 l -0.006,15.75001 h -9.03138 c -6.34669,0 -9.17529,-0.37501 -9.51549,-1.26154 z m 126.75183,-0.63269 c -6.70353,-2.31543 -11.88138,-6.47686 -15.70496,-12.62204 -2.62297,-4.21559 -3.04352,-5.92048 -3.34625,-13.56564 -0.60935,-15.38822 3.7815,-24.29939 14.97506,-30.39169 4.30765,-2.34452 6.90316,-2.99099 13.3588,-3.32733 9.56917,-0.49855 14.6779,0.7241 21.16162,5.06451 6.56173,4.39264 11.09719,13.27063 11.9984,23.48641 l 0.63957,7.25 h -21.6436 c -16.65173,0 -21.64208,0.2883 -21.63701,1.25 0.01,1.86962 3.39281,6.64102 6.00651,8.47173 3.48406,2.44033 12.85816,2.14179 17.42899,-0.55506 2.01973,-1.19167 4.43401,-2.15449 5.36507,-2.13961 2.45747,0.0393 9.37273,6.80034 8.9897,8.78925 -0.45567,2.36612 -10.06133,7.86023 -15.95073,9.12328 -7.27939,1.56115 -15.64001,1.23902 -21.64117,-0.83381 z m 23.64829,-34.99392 c 1.64086,-1.03977 0.308,-4.10406 -3.61598,-8.31327 -3.33074,-3.57285 -7.01792,-4.27028 -12.01194,-2.27207 -4.25388,1.70206 -9.95677,8.48097 -8.76162,10.41476 0.79075,1.27946 22.40109,1.4306 24.38954,0.17058 z m 23.63683,35.6759 c -0.26187,-0.70826 -0.36677,-14.56276 -0.23311,-30.78776 l 0.24303,-29.5 h 9.5 9.5 l 0.30952,4.29147 0.30953,4.29148 4.76974,-3.50131 c 6.27604,-4.60704 9.47257,-5.73678 16.15635,-5.71007 9.08615,0.0363 13.49685,2.5266 18.82451,10.62843 l 2.63035,4 v 23.5 23.50001 h -9 -9 l -0.50154,-18.50001 c -0.32953,-12.15532 -0.93236,-19.25406 -1.75774,-20.69872 -4.32447,-7.56909 -15.90842,-6.98909 -20.49704,1.02627 -0.80514,1.40641 -1.41999,8.51956 -1.74368,20.17245 l -0.5,18.00001 -9.2669,0.28775 c -6.85734,0.21293 -9.3907,-0.0471 -9.74302,-1 z m 84.00992,-0.28592 c -1.65,-0.73427 -4.575,-2.97126 -6.5,-4.97111 l -3.5,-3.63609 -0.5,-17.68583 c -0.47279,-16.72324 -0.60886,-17.70219 -2.5,-17.98626 -6.36329,-0.95583 -6.29454,-0.88384 -6.14286,-6.43267 0.14233,-5.2065 0.15763,-5.22993 4.14286,-6.34379 l 4,-1.118 0.5,-7.91404 0.5,-7.91405 h 9 9 l 0.29044,8.25 0.29044,8.25 5.70956,0.0137 c 9.86658,0.0236 10.34853,0.35428 10.00562,6.86503 l -0.29606,5.62127 -7.82306,0.29338 -7.82307,0.29338 0.32307,14.49503 c 0.37027,16.61335 0.41751,16.70123 8.47316,15.76493 l 5.1501,-0.5986 1.23982,5.54011 c 0.68191,3.04708 0.99019,6.19068 0.68507,6.98579 -1.28608,3.35148 -18.2039,4.9073 -24.22509,2.22782 z m 577.49347,-83.37667 c -7.5276,-2.46852 -15.7536,-9.9218 -18.6915,-16.93556 -3.855,-9.20349 -0.6877,-22.63758 7.1611,-30.37328 5.11,-5.03633 9.7542,-7.02737 17.7215,-7.59742 5.8657,-0.41969 7.4708,-0.13294 12.1956,2.17868 10.1014,4.94213 16.867,15.14942 16.9476,25.56875 0.08,10.31579 -6.9014,20.88318 -16.5336,25.02684 -5.6095,2.41313 -14.7742,3.45241 -18.8007,2.13199 z m 15.5305,-3.22004 c 6.7195,-2.51408 11.8628,-7.39216 15.0807,-14.30296 3.0933,-6.64323 3.0738,-12.67053 -0.062,-19.10217 -3.0545,-6.26495 -5.8431,-9.45481 -11.4657,-13.11527 -3.7347,-2.43134 -5.4467,-2.87991 -11,-2.88212 -7.642,-0.003 -12.1593,1.87035 -17.8673,7.40982 -10.5563,10.24452 -10.9787,24.7084 -1.0391,35.58388 7.6462,8.3661 15.8135,10.3523 26.3534,6.40882 z m -15.524,-22.35656 c 0,-12.23437 0.067,-12.62338 2.3055,-13.47462 3.1747,-1.20703 10.7942,0.34192 12.3852,2.51778 1.9352,2.64653 1.5916,6.3591 -0.7652,8.26751 l -2.0745,1.67982 2.658,5.29183 c 2.5734,5.12361 2.72,8.74545 0.3216,7.94598 -0.6426,-0.21419 -1.7724,-2.13427 -2.5107,-4.26684 -1.6403,-4.73782 -4.17,-7.68385 -6.2584,-7.28838 -1.112,0.21056 -1.7054,1.87409 -2.0615,5.77835 -0.3816,4.18388 -0.9146,5.56131 -2.25,5.81466 -1.5916,0.30194 -1.75,-0.80811 -1.75,-12.26609 z m 11.0657,-2.58375 c 1.0853,-0.5808 1.9343,-2.08576 1.9343,-3.42858 0,-5.82491 -7.5202,-7.52871 -9.3148,-2.11039 -0.8258,2.49316 -0.636,3.19561 1.2836,4.75 2.5985,2.10412 3.4369,2.2126 6.0969,0.78897 z"
       id="path1" />
  </g>
</svg>
